<mxfile host="app.diagrams.net" modified="2023-10-09T14:02:42.893Z" agent="Mozilla/5.0 (Macintosh; Intel Mac OS X 10_15_7) AppleWebKit/605.1.15 (KHTML, like Gecko) Version/17.0 Safari/605.1.15" etag="0bPHXkxvJ7it1bPtU0Z-" version="22.0.4" type="device">
  <diagram name="Page-1" id="55a83fd1-7818-8e21-69c5-c3457e3827bb">
    <mxGraphModel dx="1562" dy="927" grid="1" gridSize="10" guides="1" tooltips="1" connect="1" arrows="1" fold="1" page="1" pageScale="1" pageWidth="1100" pageHeight="850" background="none" math="0" shadow="0">
      <root>
        <mxCell id="0" />
        <mxCell id="1" parent="0" />
        <mxCell id="uj8slq2a4c6AIJabdcX4-12" value="" style="edgeStyle=orthogonalEdgeStyle;rounded=0;orthogonalLoop=1;jettySize=auto;html=1;" edge="1" parent="1" source="69ecfefc5c41e42c-1" target="69ecfefc5c41e42c-3">
          <mxGeometry relative="1" as="geometry" />
        </mxCell>
        <mxCell id="69ecfefc5c41e42c-1" value="" style="image;html=1;labelBackgroundColor=#ffffff;image=img/lib/clip_art/networking/Wireless_Router_128x128.png;rounded=1;shadow=0;comic=0;strokeWidth=2;fontSize=22" parent="1" vertex="1">
          <mxGeometry x="470" y="290" width="80" height="80" as="geometry" />
        </mxCell>
        <mxCell id="uj8slq2a4c6AIJabdcX4-13" value="" style="edgeStyle=orthogonalEdgeStyle;rounded=0;orthogonalLoop=1;jettySize=auto;html=1;" edge="1" parent="1" source="69ecfefc5c41e42c-2" target="69ecfefc5c41e42c-3">
          <mxGeometry relative="1" as="geometry" />
        </mxCell>
        <mxCell id="69ecfefc5c41e42c-2" value="Internet" style="image;html=1;labelBackgroundColor=#ffffff;image=img/lib/clip_art/networking/Cloud_128x128.png;rounded=1;shadow=0;comic=0;strokeWidth=2;fontSize=22;labelPosition=center;verticalLabelPosition=top;align=center;verticalAlign=bottom;" parent="1" vertex="1">
          <mxGeometry x="470" y="50" width="80" height="80" as="geometry" />
        </mxCell>
        <mxCell id="uj8slq2a4c6AIJabdcX4-11" value="" style="edgeStyle=orthogonalEdgeStyle;rounded=0;orthogonalLoop=1;jettySize=auto;html=1;" edge="1" parent="1" source="69ecfefc5c41e42c-3" target="69ecfefc5c41e42c-2">
          <mxGeometry relative="1" as="geometry" />
        </mxCell>
        <mxCell id="uj8slq2a4c6AIJabdcX4-17" value="" style="edgeStyle=orthogonalEdgeStyle;rounded=0;orthogonalLoop=1;jettySize=auto;html=1;" edge="1" parent="1" source="69ecfefc5c41e42c-3" target="69ecfefc5c41e42c-1">
          <mxGeometry relative="1" as="geometry" />
        </mxCell>
        <mxCell id="69ecfefc5c41e42c-3" value="Firewall" style="image;html=1;labelBackgroundColor=#ffffff;image=img/lib/clip_art/networking/Firewall_128x128.png;rounded=1;shadow=0;comic=0;strokeWidth=2;fontSize=22;labelPosition=right;verticalLabelPosition=middle;align=left;verticalAlign=middle;" parent="1" vertex="1">
          <mxGeometry x="470" y="170" width="80" height="80" as="geometry" />
        </mxCell>
        <mxCell id="uj8slq2a4c6AIJabdcX4-2" value="pfSense&lt;br&gt;WAN: 10.0.1.1&lt;br&gt;LAN: 192.168.1.1" style="text;html=1;strokeColor=default;fillColor=none;align=center;verticalAlign=middle;whiteSpace=wrap;rounded=1;fontSize=14;strokeWidth=2;" vertex="1" parent="1">
          <mxGeometry x="550" y="280" width="130" height="60" as="geometry" />
        </mxCell>
        <mxCell id="uj8slq2a4c6AIJabdcX4-9" value="" style="edgeStyle=orthogonalEdgeStyle;rounded=0;orthogonalLoop=1;jettySize=auto;html=1;" edge="1" parent="1" source="uj8slq2a4c6AIJabdcX4-3" target="69ecfefc5c41e42c-1">
          <mxGeometry relative="1" as="geometry" />
        </mxCell>
        <mxCell id="uj8slq2a4c6AIJabdcX4-3" value="" style="image;html=1;image=img/lib/clip_art/computers/Server_128x128.png" vertex="1" parent="1">
          <mxGeometry x="470" y="440" width="80" height="80" as="geometry" />
        </mxCell>
        <mxCell id="uj8slq2a4c6AIJabdcX4-4" value="Ubuntu Server&lt;br&gt;LAN: 192.168.1.2" style="text;html=1;strokeColor=default;fillColor=none;align=center;verticalAlign=middle;whiteSpace=wrap;rounded=1;fontSize=14;strokeWidth=2;" vertex="1" parent="1">
          <mxGeometry x="550" y="410" width="130" height="47" as="geometry" />
        </mxCell>
        <mxCell id="uj8slq2a4c6AIJabdcX4-19" value="" style="edgeStyle=orthogonalEdgeStyle;rounded=0;orthogonalLoop=1;jettySize=auto;html=1;" edge="1" parent="1" source="uj8slq2a4c6AIJabdcX4-7" target="uj8slq2a4c6AIJabdcX4-3">
          <mxGeometry relative="1" as="geometry" />
        </mxCell>
        <mxCell id="uj8slq2a4c6AIJabdcX4-7" value="" style="fontColor=#0066CC;verticalAlign=top;verticalLabelPosition=bottom;labelPosition=center;align=center;html=1;outlineConnect=0;fillColor=#CCCCCC;strokeColor=#6881B3;gradientColor=none;gradientDirection=north;strokeWidth=2;shape=mxgraph.networks.pc;" vertex="1" parent="1">
          <mxGeometry x="460" y="570" width="100" height="70" as="geometry" />
        </mxCell>
        <mxCell id="uj8slq2a4c6AIJabdcX4-8" value="Windows 10&lt;br&gt;LAN: 192.168.1.3" style="text;html=1;strokeColor=default;fillColor=none;align=center;verticalAlign=middle;whiteSpace=wrap;rounded=1;fontSize=14;strokeWidth=2;" vertex="1" parent="1">
          <mxGeometry x="550" y="510" width="135" height="60" as="geometry" />
        </mxCell>
      </root>
    </mxGraphModel>
  </diagram>
</mxfile>
